<?xml version="1.0" encoding="UTF-8" standalone="no"?>
<!-- Created with Inkscape (http://www.inkscape.org/) -->

<svg
   version="1.1"
   id="svg2"
   width="500"
   height="500"
   viewBox="0 0 500 500"
   xmlns="http://www.w3.org/2000/svg"
   xmlns:svg="http://www.w3.org/2000/svg">
  <defs
     id="defs6">
    <clipPath
       clipPathUnits="userSpaceOnUse"
       id="clipPath18">
      <path
         d="M 0,0 H 1562.5 V 1562.5 H 0 Z"
         clip-rule="evenodd"
         id="path16" />
    </clipPath>
    <clipPath
       clipPathUnits="userSpaceOnUse"
       id="clipPath30">
      <path
         d="M 0,0 H 1562.5 V 1562.5 H 0 Z"
         clip-rule="evenodd"
         id="path28" />
    </clipPath>
    <clipPath
       clipPathUnits="userSpaceOnUse"
       id="clipPath42">
      <path
         d="M 0,0 H 1562.5 V 1562.5 H 0 Z"
         id="path40" />
    </clipPath>
    <clipPath
       clipPathUnits="userSpaceOnUse"
       id="clipPath48">
      <path
         d="M 0,0 H 1562.5 V 1562.5 H 0 Z"
         id="path46" />
    </clipPath>
    <clipPath
       clipPathUnits="userSpaceOnUse"
       id="clipPath54">
      <path
         d="M 230.95099,476.38788 H 403.83463 V 992.33746 H 230.95099 Z"
         id="path52" />
    </clipPath>
    <clipPath
       clipPathUnits="userSpaceOnUse"
       id="clipPath60">
      <path
         d="m 403.83463,517.01288 v 434.47064 c 0,10.77448 -4.28013,21.10754 -11.89878,28.7262 -7.61868,7.61877 -17.95181,11.89886 -28.72622,11.89886 h -91.63364 c -10.77442,0 -21.10755,-4.28009 -28.72621,-11.89886 -7.61867,-7.61866 -11.89879,-17.95172 -11.89879,-28.7262 V 517.01288 c 0,-10.77442 4.28012,-21.10755 11.89879,-28.72623 7.61866,-7.61865 17.95179,-11.89877 28.72621,-11.89877 h 91.63364 c 10.77441,0 21.10754,4.28012 28.72622,11.89877 7.61865,7.61868 11.89878,17.95181 11.89878,28.72623 z"
         id="path58" />
    </clipPath>
    <clipPath
       clipPathUnits="userSpaceOnUse"
       id="clipPath72">
      <path
         d="M 0,0 H 1562.5 V 1562.5 H 0 Z"
         id="path70" />
    </clipPath>
    <clipPath
       clipPathUnits="userSpaceOnUse"
       id="clipPath78">
      <path
         d="M 0,0 H 1562.5 V 1562.5 H 0 Z"
         id="path76" />
    </clipPath>
    <clipPath
       clipPathUnits="userSpaceOnUse"
       id="clipPath84">
      <path
         d="M 52.304955,647.79901 H 568.25453 V 820.68262 H 52.304955 Z"
         id="path82" />
    </clipPath>
    <clipPath
       clipPathUnits="userSpaceOnUse"
       id="clipPath90">
      <path
         d="M 92.929955,647.79901 H 527.40063 c 10.77442,0 21.10755,4.28015 28.7262,11.8988 7.61871,7.61866 11.8988,17.95179 11.8988,28.7262 v 91.63361 c 0,10.77441 -4.28009,21.10754 -11.8988,28.72625 -7.61865,7.61866 -17.95178,11.89875 -28.7262,11.89875 H 92.929955 c -10.774422,0 -21.107552,-4.28009 -28.726212,-11.89875 -7.618668,-7.61871 -11.898788,-17.95184 -11.898788,-28.72625 v -91.63361 c 0,-10.77441 4.28012,-21.10754 11.898788,-28.7262 7.61866,-7.61865 17.95179,-11.8988 28.726212,-11.8988 z"
         id="path88" />
    </clipPath>
    <clipPath
       clipPathUnits="userSpaceOnUse"
       id="clipPath102">
      <path
         d="m 228.54443,552.26422 h 431.25 v 440.625 h -431.25 z"
         clip-rule="evenodd"
         id="path100" />
    </clipPath>
    <clipPath
       clipPathUnits="userSpaceOnUse"
       id="clipPath114">
      <path
         d="M 0,0 H 1562.5 V 1562.5 H 0 Z"
         clip-rule="evenodd"
         id="path112" />
    </clipPath>
    <clipPath
       clipPathUnits="userSpaceOnUse"
       id="clipPath134">
      <path
         d="m 116.19389,640.34772 h 228.12502 v 181.25 H 116.19389 Z"
         clip-rule="evenodd"
         id="path132" />
    </clipPath>
    <clipPath
       clipPathUnits="userSpaceOnUse"
       id="clipPath146">
      <path
         d="M 0,0 H 1562.5 V 1562.5 H 0 Z"
         clip-rule="evenodd"
         id="path144" />
    </clipPath>
  </defs>
  <g
     id="g8"
     transform="matrix(1.3333333,0,0,-1.3333333,0,510.71997)">
    <g
       id="g10"
       transform="matrix(0.23999999,0,0,-0.23999999,0,383.03998)">
      <g
         id="g12">
        <g
           id="g14"
           clip-path="url(#clipPath18)">
          <g
             id="g20"
             transform="scale(3.125)">
            <path
               d="M 0,0 H 500 V 500 H 0 Z"
               style="fill:#ffffff;fill-opacity:1;fill-rule:nonzero;stroke:none"
               id="path22" />
          </g>
        </g>
      </g>
      <g
         id="g24">
        <g
           id="g26"
           clip-path="url(#clipPath30)">
          <g
             id="g32"
             transform="scale(3.125)">
            <path
               d="M 0,0 H 500 V 500 H 0 Z"
               style="fill:#ffffff;fill-opacity:1;fill-rule:nonzero;stroke:none"
               id="path34" />
          </g>
        </g>
      </g>
      <g
         id="g36">
        <g
           id="g38"
           clip-path="url(#clipPath42)">
          <g
             id="g44"
             clip-path="url(#clipPath48)">
            <g
               id="g50"
               clip-path="url(#clipPath54)">
              <g
                 id="g56"
                 clip-path="url(#clipPath60)">
                <g
                   id="g62"
                   transform="matrix(0,0.6753267,-0.6753267,0,403.83463,476.38788)">
                  <path
                     d="M 0,0 H 764 V 256 H 0 Z"
                     style="fill:#8acaef;fill-opacity:1;fill-rule:nonzero;stroke:none"
                     id="path64" />
                </g>
              </g>
            </g>
          </g>
        </g>
      </g>
      <g
         id="g66">
        <g
           id="g68"
           clip-path="url(#clipPath72)">
          <g
             id="g74"
             clip-path="url(#clipPath78)">
            <g
               id="g80"
               clip-path="url(#clipPath84)">
              <g
                 id="g86"
                 clip-path="url(#clipPath90)">
                <g
                   id="g92"
                   transform="matrix(0.6753267,0,0,0.6753267,52.304955,647.79901)">
                  <path
                     d="M 0,0 H 764 V 256 H 0 Z"
                     style="fill:#7ed957;fill-opacity:1;fill-rule:nonzero;stroke:none"
                     id="path94" />
                </g>
              </g>
            </g>
          </g>
        </g>
      </g>
      <g
         id="g96">
        <g
           id="g98"
           clip-path="url(#clipPath102)">
          <g
             id="g104"
             transform="matrix(7.5696201,0,0,7.5696201,202.62518,530.31232)">
            <path
               d="M 6.3200002,61 H 57.68 c 0.185818,-4e-6 0.36985,-0.01813 0.552098,-0.05438 0.182247,-0.03625 0.359211,-0.08993 0.530891,-0.161042 0.171673,-0.07111 0.334763,-0.158283 0.489265,-0.26152 0.154507,-0.103237 0.297455,-0.220551 0.428853,-0.35194 0.131393,-0.131397 0.248706,-0.274349 0.351944,-0.428856 0.103237,-0.154503 0.19041,-0.317593 0.261524,-0.489269 0.07111,-0.171681 0.124794,-0.348645 0.161045,-0.530892 C 60.49187,58.539854 60.51,58.355818 60.51,58.17 v -2.169998 c -4e-6,-0.185825 -0.01813,-0.369862 -0.05438,-0.552113 -0.03625,-0.182251 -0.08994,-0.359214 -0.161049,-0.530891 -0.07111,-0.171677 -0.158283,-0.334766 -0.261517,-0.489265 -0.103237,-0.154507 -0.22055,-0.297455 -0.351944,-0.428849 -0.131397,-0.131397 -0.274349,-0.24871 -0.428856,-0.351947 -0.154502,-0.103238 -0.317592,-0.190411 -0.489269,-0.261521 -0.171673,-0.07111 -0.348636,-0.124786 -0.530884,-0.161037 -0.182247,-0.03625 -0.366283,-0.05438 -0.552101,-0.05438 H 46.150002 v -6.41 c 0.313552,-0.205658 0.60255,-0.441417 0.866989,-0.707275 0.264438,-0.265862 0.498642,-0.556118 0.70261,-0.87077 0.203975,-0.314651 0.373336,-0.646946 0.508087,-0.996879 0.134746,-0.34993 0.231991,-0.709992 0.291729,-1.080189 0.05974,-0.37019 0.08069,-0.742561 0.06286,-1.117119 -0.01784,-0.374553 -0.07408,-0.743252 -0.16872,-1.106094 C 48.318917,40.518834 48.187899,40.169641 48.02051,39.834092 47.853121,39.498548 47.652952,39.18385 47.420004,38.89 c 0.625267,-2.002327 0.935268,-4.052326 0.93,-6.150001 -0.0018,-1.430964 -0.149891,-2.846613 -0.444389,-4.246946 -0.294498,-1.400334 -0.729137,-2.755728 -1.303913,-4.066185 -0.574776,-1.310458 -1.277535,-2.548253 -2.108273,-3.713389 -0.830734,-1.165134 -1.771877,-2.232962 -2.823425,-3.20348 l 5.84,-5.84 c 0.08719,-0.09273 0.154232,-0.198258 0.201126,-0.316587 0.04689,-0.118327 0.07034,-0.241132 0.07033,-0.368413 4e-6,-0.12728 -0.02344,-0.250085 -0.07033,-0.368413 -0.04689,-0.118327 -0.113937,-0.223856 -0.201126,-0.316587 l -7,-6.9999997 c -0.09273,-0.087187 -0.198261,-0.1542268 -0.316589,-0.2011187 -0.118328,-0.046892 -0.241131,-0.070338 -0.368412,-0.070338 -0.127281,0 -0.250084,0.023446 -0.368412,0.070338 -0.118328,0.046892 -0.223854,0.1139317 -0.316586,0.201119 L 19.200001,23.209999 c -0.08719,0.09273 -0.154228,0.198258 -0.201121,0.316588 -0.04689,0.118326 -0.07034,0.24113 -0.07034,0.368412 2e-6,0.127281 0.02345,0.250085 0.07034,0.368413 0.04689,0.118329 0.113934,0.223858 0.201121,0.316588 l 0.83,0.83 L 17.68,27.76 c -0.08719,0.09273 -0.154226,0.198256 -0.201118,0.316586 -0.04689,0.118326 -0.07034,0.241131 -0.07034,0.368412 0,0.127281 0.02345,0.250086 0.07034,0.368414 0.04689,0.11833 0.113931,0.223859 0.201118,0.316589 l 4,4 c 0.09273,0.08719 0.19826,0.154228 0.316588,0.201119 0.118328,0.04689 0.241132,0.07034 0.368414,0.07034 0.127281,0 0.250086,-0.02345 0.368414,-0.07034 0.118326,-0.04689 0.223856,-0.11393 0.316585,-0.201119 l 2.350001,-2.34 0.829999,0.83 c 0.189764,0.182957 0.41643,0.276291 0.680001,0.280001 0.263571,-0.0037 0.490236,-0.09704 0.68,-0.280001 l 10.000002,-10 c 0.788586,0.696386 1.494827,1.468126 2.118721,2.315222 0.623898,0.847095 1.151401,1.750475 1.58252,2.71014 0.431118,0.959665 0.756137,1.954008 0.975059,2.98303 0.218922,1.029024 0.326824,2.069559 0.3237,3.121607 C 42.603497,34.195843 42.406826,35.612507 42,37 c -0.296135,0.06887 -0.58445,0.161949 -0.864948,0.279251 -0.280495,0.117298 -0.549244,0.257172 -0.806248,0.419621 -0.257004,0.162441 -0.498657,0.345176 -0.724964,0.548214 -0.226307,0.203037 -0.434097,0.423526 -0.623367,0.661468 -0.18927,0.237938 -0.357373,0.489998 -0.504307,0.756176 -0.146931,0.266178 -0.27063,0.542744 -0.371102,0.829697 -0.100475,0.286953 -0.176311,0.58028 -0.227516,0.879974 -0.0512,0.299694 -0.07705,0.601559 -0.07755,0.905598 -0.003,0.433704 0.05036,0.86037 0.16,1.279999 -0.59322,0.566047 -1.229015,1.079364 -1.907379,1.539955 -0.678364,0.46059 -1.390034,0.862156 -2.135006,1.204696 -0.744972,0.342541 -1.513069,0.621384 -2.304295,0.836522 -0.791223,0.215137 -1.594764,0.363636 -2.410621,0.445491 -0.815855,0.08186 -1.63288,0.09595 -2.451073,0.04229 -0.818192,-0.05367 -1.626378,-0.174362 -2.424554,-0.36208 -0.798172,-0.187717 -1.575432,-0.439895 -2.331777,-0.756534 -0.756346,-0.316647 -1.481444,-0.693424 -2.175293,-1.130341 0.245521,-0.0732 0.473285,-0.183174 0.68329,-0.329929 0.210005,-0.146755 0.391579,-0.322826 0.54472,-0.528221 0.153145,-0.205387 0.270075,-0.429661 0.350792,-0.672814 0.08072,-0.243152 0.121115,-0.492828 0.121198,-0.749035 v -1.68 c -6.54e-4,-0.155197 -0.0164,-0.308845 -0.04724,-0.460945 -0.03084,-0.1521 -0.07618,-0.299744 -0.136023,-0.442936 -0.05984,-0.143192 -0.133049,-0.279198 -0.219612,-0.408012 -0.08656,-0.128811 -0.184829,-0.247971 -0.294801,-0.357479 -0.109974,-0.109509 -0.22955,-0.207272 -0.358727,-0.29329 -0.129179,-0.08602 -0.265489,-0.158645 -0.408935,-0.217884 -0.143448,-0.05924 -0.291289,-0.103962 -0.44352,-0.134159 -0.152231,-0.0302 -0.305946,-0.0453 -0.461143,-0.0453 H 5.8499969 c -0.1549602,0 -0.3084311,0.01511 -0.460413,0.04534 -0.1519828,0.03023 -0.2995558,0.075 -0.4427199,0.134296 -0.1431642,0.0593 -0.2791686,0.131996 -0.4080129,0.21809 -0.1288447,0.08609 -0.2480535,0.183926 -0.3576264,0.293499 -0.1095734,0.109574 -0.2074056,0.228783 -0.2934966,0.357624 -0.086091,0.128846 -0.1587866,0.264851 -0.2180872,0.408017 -0.059301,0.143161 -0.1040664,0.290733 -0.1342976,0.442714 -0.030231,0.151982 -0.045347,0.305455 -0.045346,0.460415 v 1.650002 c -1.5e-6,0.155193 0.015096,0.308906 0.045291,0.461139 0.030196,0.152233 0.074913,0.300072 0.1341522,0.443516 0.059239,0.143444 0.1318671,0.279759 0.2178845,0.408936 0.086017,0.129177 0.1837804,0.248752 0.293289,0.358726 0.109508,0.10997 0.2286686,0.208237 0.3574819,0.294804 0.1288133,0.08656 0.2648172,0.159767 0.4080114,0.219608 0.1431947,0.05985 0.2908426,0.10519 0.4429441,0.136032 0.1521015,0.03084 0.3057499,0.04659 0.4609456,0.04724 h 5.529999 c 0.789628,1.024814 1.668828,1.965953 2.6376,2.823413 0.968773,0.857457 2.009724,1.615845 3.122854,2.275162 1.113133,0.659321 2.27846,1.20773 3.49598,1.645226 1.217519,0.4375 2.465376,0.756233 3.743566,0.956199 H 6.3799963 c -0.1895986,-0.004 -0.3777023,0.01085 -0.5643111,0.04463 -0.1866088,0.03379 -0.3679886,0.0858 -0.5441403,0.156047 C 5.0953936,53.410918 4.9279942,53.49799 4.7693472,53.601887 4.6107035,53.705795 4.4639826,53.82444 4.3291879,53.957832 4.1943932,54.091228 4.0742216,54.236706 3.9686723,54.39426 3.8631227,54.551819 3.7743075,54.7183 3.7022264,54.893707 3.6301455,55.069118 3.576241,55.249947 3.5405126,55.436192 3.5047843,55.622437 3.4879467,55.810375 3.49,56 v 2.200001 c 0.00196,0.184551 0.021778,0.367164 0.059463,0.547844 0.037686,0.180675 0.092522,0.355987 0.1645078,0.525936 0.071986,0.169945 0.1597569,0.331306 0.2633136,0.484085 0.1035564,0.152775 0.2209351,0.294071 0.3521363,0.423881 0.1312008,0.129807 0.273736,0.245675 0.4276061,0.347599 0.1538702,0.101922 0.3161579,0.18797 0.4868637,0.258141 0.1707053,0.07017 0.3465919,0.123131 0.5276594,0.158886 0.1810679,0.03576 0.3638849,0.05363 0.54845,0.05363 z M 22.32,31.059999 l -2.630001,-2.62 1.67,-1.66 L 24,29.4 Z m 20.45,7.730002 h 0.360001 c 0.387203,-2.94e-4 0.763958,0.06229 1.130272,0.187752 0.366314,0.125461 0.702328,0.307007 1.008041,0.544632 0.305714,0.237625 0.564556,0.518448 0.776535,0.842472 0.211972,0.324024 0.36559,0.673691 0.46085,1.048992 0.09526,0.375301 0.126999,0.755901 0.09522,1.141796 -0.03178,0.385895 -0.125366,0.756172 -0.280743,1.110828 -0.155376,0.35466 -0.364132,0.674477 -0.626266,0.959454 -0.262135,0.284977 -0.563435,0.519669 -0.903904,0.704075 -0.06401,0.02198 -0.124008,0.05198 -0.18,0.09 -0.468853,0.219795 -0.962189,0.329796 -1.48,0.330002 -0.341965,6.03e-4 -0.675297,-0.05273 -1,-0.16 -0.492451,-0.15527 -0.928524,-0.407875 -1.308212,-0.757816 -0.379681,-0.349942 -0.666947,-0.764 -0.86179,-1.242184 -0.03266,-0.08142 -0.05933,-0.164749 -0.08,-0.25 -0.129566,-0.355228 -0.192898,-0.721893 -0.189998,-1.099999 6.9e-4,-0.21286 0.02074,-0.423881 0.06016,-0.63306 0.03942,-0.209179 0.09753,-0.413029 0.174355,-0.611546 0.07682,-0.198516 0.171062,-0.388385 0.282722,-0.56961 0.111664,-0.181221 0.238884,-0.350769 0.381661,-0.508648 0.142776,-0.157879 0.298725,-0.301449 0.467846,-0.430714 0.16912,-0.129257 0.34859,-0.24205 0.538414,-0.338379 0.189815,-0.09633 0.386814,-0.174579 0.590992,-0.234756 0.204181,-0.06018 0.412132,-0.101273 0.623851,-0.123291 h -0.04 z m -0.75,8.75 c 0.365597,0.08074 0.7356,0.120743 1.110001,0.119999 0.336136,-0.0053 0.669468,-0.03865 1,-0.1 v 5.579998 H 31 c 2.090721,-0.332271 4.080414,-0.976543 5.969074,-1.932823 1.888661,-0.956287 3.585636,-2.178676 5.090927,-3.667175 h -0.04 z M 19.549999,43.07 c -0.0027,0.119545 -0.04683,0.221107 -0.132353,0.304683 -0.08552,0.08358 -0.18807,0.125351 -0.307647,0.125317 H 5.8499999 C 5.7312584,43.499996 5.6299062,43.458015 5.5459433,43.374054 5.4619808,43.290092 5.4199996,43.18874 5.4200001,43.07 v -1.650002 c 0.00272,-0.116787 0.045858,-0.215992 0.1294255,-0.297615 C 5.6329923,41.04076 5.7331839,40.999966 5.8499999,41 H 19.110001 c 0.119577,-2.7e-5 0.222126,0.04175 0.307644,0.125324 0.08552,0.08357 0.129638,0.185131 0.132356,0.304676 z"
               style="fill:#08376b;fill-opacity:1;fill-rule:nonzero;stroke:none"
               id="path106" />
          </g>
        </g>
      </g>
      <g
         id="g108">
        <g
           id="g110"
           clip-path="url(#clipPath114)">
          <g
             id="g116"
             transform="matrix(3.125,0,0,3.125,664.30908,603.82813)">
            <text
               xml:space="preserve"
               transform="translate(11.625,125)"
               style="font-variant:normal;font-weight:bold;font-size:106.66px;font-family:Tinos;-inkscape-font-specification:Tinos-Bold;writing-mode:lr-tb;fill:#08376b;fill-opacity:1;fill-rule:nonzero;stroke:none"
               id="text120"><tspan
                 x="0 100.66725 171.80614"
                 y="0"
                 id="tspan118">MBH</tspan></text>
          </g>
          <g
             id="g122"
             transform="matrix(3.3527176,0,0,3.3527176,706.08264,612.72003)">
            <text
               xml:space="preserve"
               transform="translate(1.578125,39)"
               style="font-variant:normal;font-weight:300;font-size:37.33px;font-family:Aleo;-inkscape-font-specification:Aleo-Light;writing-mode:lr-tb;fill:#08376b;fill-opacity:1;fill-rule:nonzero;stroke:none"
               id="text126"><tspan
                 x="0 22.135651 50.24382 79.695801 109.14778 137.92786 149.72359 175.36809 204.14816 211.87511"
                 y="0"
                 id="tspan124">PONNAIYA’S</tspan></text>
          </g>
        </g>
      </g>
      <g
         id="g128">
        <g
           id="g130"
           clip-path="url(#clipPath134)">
          <g
             id="g136"
             transform="matrix(0.56687284,0,0,0.56687284,118.0394,641.65155)">
            <path
               d="m 7.987,228.312 c 22.02,0 44.037998,0 66.057998,0 3.768997,0 6.862,-2.538 7.960999,-6.064 13.761001,-44.03799 27.522003,-88.07399 41.285993,-132.110991 -5.309,0 -10.615,0 -15.92399,0 16.515,45.871991 33.028,91.745011 49.54299,137.617001 2.62801,7.306 13.79201,8.422 15.924,0 C 191.185,155.27502 209.536,82.796021 227.881,10.317017 c -5.305,0 -10.61501,0 -15.922,0 17.43401,99.086003 34.862,198.169003 52.296,297.256013 1.21399,6.922 12.085,8.186 15.08899,1.97198 13.25699,-27.389 26.513,-54.783 39.76502,-82.17999 3.29999,-6.81 -10.263,0.94701 -1.34,0.94701 8.689,0 17.37601,0 26.06299,0 15.578,0 31.15601,0 46.73599,0 10.64801,0 10.64801,-16.514 0,-16.514 -25.69,0 -51.376,0 -77.06701,0 -2.73099,0 -5.892,1.53 -7.12799,4.09 -13.763,28.438 -27.52301,56.88101 -41.28501,85.323 5.03101,0.656 10.05899,1.31299 15.09,1.97501 C 262.74301,204.10001 245.315,105.012 227.881,5.9250002 c -1.45101,-8.2379999 -14.00901,-7.5549998 -15.922,0 C 193.61,78.407005 175.259,150.88501 156.91099,223.366 c 5.30901,0 10.61501,0 15.924,0 -16.51401,-45.877 -33.028,-91.748 -49.542,-137.621997 -2.737,-7.600998 -13.39,-8.111999 -15.924,0 C 93.607986,129.783 79.846985,173.823 66.082993,217.86101 c 2.653999,-2.021 5.309997,-4.04201 7.961998,-6.062 -22.020001,0 -44.037999,0 -66.0579991,0 -10.649992,-1e-5 -10.649992,16.51299 8.1e-6,16.51299 z"
               style="fill:#08376b;fill-opacity:1;fill-rule:nonzero;stroke:none"
               id="path138" />
          </g>
        </g>
      </g>
      <g
         id="g140">
        <g
           id="g142"
           clip-path="url(#clipPath146)">
          <g
             id="g148"
             transform="matrix(0.02713698,3.124882,-3.124882,0.02713698,685.19537,632.19678)">
            <path
               d="M 0,1 H 115.15652"
               style="fill:none;stroke:#7ed957;stroke-width:1;stroke-linecap:butt;stroke-linejoin:miter;stroke-miterlimit:10;stroke-dasharray:none;stroke-opacity:1"
               id="path150" />
          </g>
          <g
             id="g152"
             transform="matrix(3.125,0,0,3.125,187.93945,1140.196)">
            <text
               xml:space="preserve"
               transform="translate(0.546875,17)"
               style="font-variant:normal;font-weight:normal;font-size:16.04px;font-family:Tinos;-inkscape-font-specification:Tinos;writing-mode:lr-tb;fill:#08376b;fill-opacity:1;fill-rule:nonzero;stroke:none"
               id="text156"><tspan
                 x="0 6.5440063 15.459824 23.475449 31.491074 35.945068 43.960693 47.968506 53.307037 61.322662 69.338287 73.792282 80.907715 85.361221 91.599945 95.607758 107.18501 114.30045 118.75444 125.86987 137.44713 144.56256 152.57819 156.586 161.92453 169.94016 175.27869 178.40147 189.97873 197.99435 206.00998 213.12541 221.14104 228.25647 235.3719 239.37971 250.07243 254.52643 262.54205 266.99603 275.01166 283.02728 291.04291 295.05072 307.52032 311.52814 325.78247 332.89789 340.91351 345.36749 352.48291 356.93689 364.95251 372.06793"
                 y="0"
                 id="tspan154">&quot;South India’s Gateway for Advance Biology &amp; Medicine&quot;</tspan></text>
            <text
               xml:space="preserve"
               transform="translate(173.82813,43)"
               style="font-variant:normal;font-weight:normal;font-size:16.04px;font-family:Tinos;-inkscape-font-specification:Tinos;writing-mode:lr-tb;fill:#08376b;fill-opacity:1;fill-rule:nonzero;stroke:none"
               id="text160"><tspan
                 x="0 8.015625 16.03125 24.046875"
                 y="0"
                 id="tspan158">2025</tspan></text>
          </g>
        </g>
      </g>
    </g>
    <path
       d="M 55.437706,144.9357 H 96.929779 V 268.70866 H 55.437706 Z"
       style="fill:#000000;fill-opacity:0;fill-rule:nonzero;stroke:none"
       id="path162" />
    <path
       d="M 54.850662,144.9357 H 158.68418 V 250.49657 H 54.850662 Z"
       style="fill:#000000;fill-opacity:0;fill-rule:nonzero;stroke:none"
       id="path164" />
    <path
       d="m 27.886534,186.07614 h 55.10235 v 43.28039 h -55.10235 z"
       style="fill:#000000;fill-opacity:0;fill-rule:nonzero;stroke:none"
       id="path166" />
    <path
       d="M 12.553189,186.07614 H 136.32615 v 41.49207 H 12.553189 Z"
       style="fill:#000000;fill-opacity:0;fill-rule:nonzero;stroke:none"
       id="path168" />
    <path
       d="m 162.94704,144.9357 h 2.24994 v 86.37716 h -2.24994 z"
       style="fill:#000000;fill-opacity:0;fill-rule:nonzero;stroke:none"
       id="path170" />
  </g>
</svg>
